<svg xmlns="http://www.w3.org/2000/svg" width="246" height="106" viewBox="0 0 246 106"><title>logo</title><g fill="none" fill-rule="evenodd"><path d="M242.08 17H215.73L201.3 84.795h-23.32L192.407 17h-84.974l3.545-17h134.574l-3.47 17z" fill="#D82331"/><path d="M159.338 50.977L162.808 34h-59.586l-3.545 17 59.66-.023" fill="#D82331"/><path d="M45.147 17.147h9.462c7.462 0 15.283.848 13.17 9.426C65.644 35.23 58.29 35.8 50.83 35.8H41.33l-3.937 16.284h9.146c9.076.024 11.717 5.785 11.717 14.772 0 6.155.168 11.64-.425 18.144h94.82l3.47-17H80.866c.038-1.028.07-2.4.085-3.714.073-6.014.208-18.472-12.002-20.223l.1-.47C81.69 41.26 88.244 36.84 92.514 22.12 95.065 5.494 80.89.136 64.475.394L48.93 0l-3.783 17.147zM4.253 85h5.402L28.088.02h-5.403L4.253 85z" fill="#D82331"/><path d="M7.947 98.385c-.096-.71-.172-1.404-.19-2.153h-.04c-.288.713-.634 1.498-1.037 2.31l-1.286 2.438H8.33l-.383-2.595zm1.018 7.366l-.327-2.402H4.243l-1.23 2.403H0l6.776-12.98h3.34l1.977 12.98H8.965zM22.01 98.385c-.097-.71-.174-1.404-.193-2.153h-.04c-.287.713-.632 1.498-1.035 2.31l-1.287 2.438h2.938l-.384-2.595zm1.016 7.366l-.326-2.402h-4.396l-1.23 2.403h-3.012l6.776-12.98h3.34l1.977 12.98h-3.13zM34.66 95.137c-.363 0-.728.02-.92.037l-.633 3.328c.172.02.403.04.73.04 1.44 0 2.963-.983 2.963-2.233 0-.752-1.006-1.173-2.14-1.173zm1.623 5.112c.21.425.46.94.69 1.442l1.843 4.06H35.4l-2.055-5.077h-.115l-.96 5.076h-2.917l2.456-12.98c1.093-.078 2.457-.095 3.896-.095 2.918 0 4.243 1.095 4.243 3.06 0 2.208-1.365 3.803-3.667 4.514zM48.653 95.213c-.615 0-.998 0-1.344.04l-1.516 7.94c.27.04.633.075.94.075 3.494 0 4.606-3.517 4.606-5.612 0-1.52-.65-2.443-2.687-2.443zm-2.342 10.635c-1.572 0-2.762-.06-3.914-.117l2.456-12.922c.998-.056 2.65-.116 4.184-.116 3.456 0 5.434 1.502 5.434 4.673 0 4.386-2.727 8.483-8.16 8.483zM59.816 105.75H56.9l2.456-12.98h2.918l-2.458 12.98M75.542 95.904c-.98-.402-2.19-.65-3.245-.65-3.168 0-4.972 2.592-4.972 5.343 0 1.424.75 2.652 2.822 2.652.5 0 .998-.057 1.44-.19l.805-4.234h2.937l-1.21 6.31c-1.343.537-3.012.826-4.49.826-3.86 0-5.47-2.038-5.47-4.942 0-4.75 3.415-8.442 8.406-8.442 1.324 0 2.668.174 3.84.502l-.864 2.824M95.554 95.253c-2.533 0-4.05 2.75-4.05 5.458 0 1.656.75 2.54 2.19 2.54 2.397 0 4.087-2.634 4.087-5.575 0-1.424-.69-2.422-2.226-2.422zM93.25 106c-3.36 0-4.895-1.845-4.895-4.77 0-4.653 3.323-8.71 7.68-8.71 3.204 0 4.855 1.752 4.855 4.81 0 5.018-3.455 8.67-7.64 8.67zM113.8 105.75h-3.435l-1.94-5.518c-.344-.982-.612-2-.825-2.867-.114 1-.248 1.867-.46 2.944l-1.016 5.44h-2.842l2.458-12.98h3.454l1.862 5.076c.384 1.08.69 2.193.94 3.194.117-1.04.307-2.29.52-3.33l.92-4.94h2.842l-2.478 12.98M124.733 95.213c-.615 0-.998 0-1.345.04l-1.516 7.94c.268.04.634.075.94.075 3.495 0 4.608-3.517 4.608-5.612 0-1.52-.652-2.443-2.687-2.443zm-2.343 10.635c-1.573 0-2.764-.06-3.916-.117l2.458-12.922c.998-.056 2.65-.116 4.185-.116 3.454 0 5.433 1.502 5.433 4.673 0 4.386-2.727 8.483-8.16 8.483zM150.073 95.137c-.364 0-.73.02-.92.037l-.635 3.328c.174.02.403.04.73.04 1.44 0 2.418-.983 2.418-2.233 0-.752-.46-1.173-1.593-1.173zm1.076 5.112c.21.425.46.94.69 1.442l1.842 4.06h-3.417l-2.054-5.077h-.113l-.96 5.076h-2.918l2.455-12.98c1.097-.078 2.458-.095 3.898-.095 2.917 0 4.24 1.095 4.24 3.06 0 2.208-1.36 3.803-3.664 4.514zM169.924 105.75h-3.57l-.344-6.115c-.038-.884 0-1.886.094-2.96h-.02c-.287 1-.612 1.943-1.017 2.863l-2.703 6.213h-3.362l-.67-12.98h2.993l.288 6.33c.037.845-.02 1.786-.096 2.727h.02c.305-.904.596-1.788.978-2.672l2.878-6.384h3.016l.48 6.268c.055.75.055 1.71-.02 2.694h.02c.324-1.002.65-1.885.996-2.73l2.61-6.23h3.053l-5.626 12.98M199.345 95.904c-.98-.402-2.188-.65-3.244-.65-3.167 0-4.972 2.592-4.972 5.343 0 1.424.75 2.652 2.824 2.652.5 0 .996-.057 1.44-.19l.804-4.234h2.936l-1.208 6.31c-1.343.537-3.012.826-4.492.826-3.86 0-5.47-2.038-5.47-4.942 0-4.75 3.416-8.442 8.407-8.442 1.323 0 2.667.174 3.837.502l-.862 2.824M185.516 95.352l-7.09.003.547-2.526h7.046M184.952 98.075h-7.093l-.55 2.526s3.376 0 5.063-.002h2.044M183.92 103.28h-7.17l-.55 2.525h7.186M141.93 95.536h-4.22l-.48 2.577h4.01l-.48 2.44h-3.99l-.558 2.865h4.222l-.48 2.574h-7.137l2.456-12.974h7.137l-.48 2.518" fill="#FFF"/></g></svg>