<svg xmlns="http://www.w3.org/2000/svg" width="390" height="367" viewBox="0 0 390 367">
  <g fill-opacity=".05" fill-rule="evenodd">
    <path d="M390,200.9 C386.5,202.9 382.7,206 378.9,210.8 C367.8,224.9 364.5,253.8 326.8,253.8 C296.3,253.8 289.1,176.7 281.9,160.6 C274.7,144.5 256.8,135.5 235.2,148 C215.3,159.6 215.4,165.9 201.1,165.9 C173.8,165.9 165.2,121.1 159.8,85.2 C154.4,49.9 150.8,2.7 111.3,0.9 C71.8,-0.9 73.6,56.5 68.2,87 C64.4,108.2 61,158.7 37.7,158.7 C18.8,158.7 13.9,130 1,110.4 L1,366 L390,366 L390,200.9 Z"/>
    <path d="M356.2,103.1 C352.4,124.3 349,174.8 325.7,174.8 C297,174.8 300.6,108.5 259.2,108.5 C217.8,108.5 201.7,167.7 196.3,180.2 C185.1,206.3 177.4,221.4 153.2,221.4 C129.9,221.4 114.7,182.9 90.3,182 C62.5,180.9 40.1,230 9.5,228.6 C6.8,228.5 3.9,227.8 0.9,226.4 L0.9,367 L389.9,367 L389.9,17.9 C360.1,25 361.2,75.3 356.2,103.1 Z"/>
  </g>
</svg>
