<svg xmlns="http://www.w3.org/2000/svg" width="14" height="10" viewBox="0 0 14 10">
  <path fill="#ED1A2D" fill-rule="evenodd" d="M8.38205006,8.28311885 C7.99701152,8.67575069 7.99701152,9.31264194 8.38205006,9.70527378 C8.57407443,9.90209437 8.82548777,10 9.07789093,10 C9.32930427,10 9.58170743,9.90209437 9.7737318,9.70527378 L13.7112211,5.68104971 C14.0962596,5.28841787 14.0962596,4.65152662 13.7112211,4.25889478 L9.83213096,0.295230886 C9.44808223,-0.0984102952 8.82548777,-0.0984102952 8.44044922,0.295230886 C8.05541068,0.68786273 8.05541068,1.32475397 8.44044922,1.71738582 L10.4052346,4.03936412 L0.989816313,4.03734545 C0.426610831,4.03734545 0,4.49154681 0,5.04668181 C0,5.60282614 0.449376606,6.05601817 0.989816313,6 L10.403255,6 L8.38205006,8.28311885 Z"/>
</svg>
