<svg xmlns="http://www.w3.org/2000/svg" xmlns:xlink="http://www.w3.org/1999/xlink" width="20" height="15" viewBox="0 0 20 15">
  <defs>
    <path id="like-a" d="M14.0768495,0 C15.597903,0 16.8462961,0.440336506 17.8220663,1.32102273 C18.7978365,2.20170895 19.2857143,3.40908324 19.2857143,4.94318182 C19.2857143,6.50568963 18.6973911,7.99715199 17.520727,9.41761364 C16.3727621,10.8096661 14.9378275,12.0596536 13.2158801,13.1676136 C12.5271011,13.6221614 11.8813806,13.9985781 11.278699,14.296875 C10.6760174,14.5951719 10.245537,14.7869314 9.9872449,14.8721591 L9.64285714,15 C8.8392817,14.8011354 7.64828595,14.190346 6.06983418,13.1676136 C4.3478868,12.0596536 2.91295217,10.8096661 1.76498724,9.41761364 C0.588323198,7.99715199 0,6.50568963 0,4.94318182 C0,3.40908324 0.487877774,2.20170895 1.46364796,1.32102273 C2.43941814,0.440336506 3.68781127,0 5.2088648,0 C6.09853761,0 6.95232372,0.198861648 7.77024872,0.596590909 C8.58817373,0.99432017 9.2123703,1.5482919 9.64285714,2.25852273 C10.073344,1.5482919 10.6975406,0.99432017 11.5154656,0.596590909 C12.3333906,0.198861648 13.1871767,0 14.0768495,0 Z"/>
  </defs>
  <g fill="none" fill-rule="evenodd">
    <path stroke="#6D6E71" d="M9.61943023,14.4755079 L9.83057059,14.39734 C10.0603958,14.3215054 10.4740921,14.1372225 11.0569046,13.8487598 C11.6400657,13.5601245 12.2681356,13.1939971 12.9453296,12.7471348 C14.6251202,11.6662999 16.0210097,10.450325 17.1356777,9.0986513 C18.2411073,7.76418344 18.7857143,6.38354626 18.7857143,4.94318182 C18.7857143,3.54487715 18.352833,2.47360528 17.4870603,1.69219788 C16.6071251,0.898007924 15.4787372,0.5 14.0768495,0.5 C13.2633722,0.5 12.4842999,0.681459503 11.7341183,1.04624742 C11.0007243,1.40287213 10.4498065,1.89180928 10.0704443,2.51769292 L9.64285714,3.22313981 L9.21526995,2.51769292 C8.83590782,1.89180928 8.28499002,1.40287213 7.55159598,1.04624742 C6.80141442,0.681459503 6.02234211,0.5 5.2088648,0.5 C3.80697706,0.5 2.67858922,0.898007924 1.79865394,1.69219788 C0.932881286,2.47360528 0.5,3.54487715 0.5,4.94318182 C0.5,6.38354626 1.04460703,7.76418344 2.15073894,9.09950103 C3.26470454,10.450325 4.6605941,11.6662999 6.3417186,12.7479961 C7.78055308,13.6802657 8.88101975,14.2568341 9.61943023,14.4755079 Z"/>
  </g>
</svg>
