<svg xmlns="http://www.w3.org/2000/svg" width="18" height="15" viewBox="0 0 18 15">
  <path fill="#009DDB" fill-rule="evenodd" d="M12.7734375,0.625 C14.1536527,0.625 15.2864539,1.0286418 16.171875,1.8359375 C17.0572961,2.6432332 17.5,3.74999297 17.5,5.15625 C17.5,6.58854883 16.9661512,7.95572266 15.8984375,9.2578125 C14.8567656,10.5338605 13.5546953,11.6796824 11.9921875,12.6953125 C11.3671844,13.1119812 10.7812527,13.4570299 10.234375,13.7304688 C9.68749727,14.0039076 9.29687617,14.1796871 9.0625,14.2578125 L8.75,14.375 C8.02082969,14.1927074 6.94011133,13.6328172 5.5078125,12.6953125 C3.94530469,11.6796824 2.64323437,10.5338605 1.6015625,9.2578125 C0.533848828,7.95572266 0,6.58854883 0,5.15625 C0,3.74999297 0.442703906,2.6432332 1.328125,1.8359375 C2.21354609,1.0286418 3.34634727,0.625 4.7265625,0.625 C5.5338582,0.625 6.30859004,0.807289844 7.05078125,1.171875 C7.79297246,1.53646016 8.35937305,2.04426758 8.75,2.6953125 C9.14062695,2.04426758 9.70702754,1.53646016 10.4492188,1.171875 C11.19141,0.807289844 11.9661418,0.625 12.7734375,0.625 Z"/>
</svg>
