<svg xmlns="http://www.w3.org/2000/svg" width="14" height="12" viewBox="0 0 14 12">
  <g fill="#6D6E71" fill-rule="evenodd">
    <circle cx="1.921" cy="6" r="1"/>
    <circle cx="1.921" cy="1.921" r="1"/>
    <circle cx="1.921" cy="10.079" r="1"/>
    <path d="M13.1052632,5.47368421 L5.19407895,5.47368421 C4.90460526,5.47368421 4.66776316,5.71052632 4.66776316,6 C4.66776316,6.28947368 4.90460526,6.52631579 5.19407895,6.52631579 L13.1052632,6.52631579 C13.3947368,6.52631579 13.6315789,6.28947368 13.6315789,6 C13.6315789,5.71052632 13.3947368,5.47368421 13.1052632,5.47368421 Z M13.1052632,9.55263158 L5.19407895,9.55263158 C4.90460526,9.55263158 4.66776316,9.78947368 4.66776316,10.0789474 C4.66776316,10.3684211 4.90460526,10.6052632 5.19407895,10.6052632 L13.1052632,10.6052632 C13.3947368,10.6052632 13.6315789,10.3684211 13.6315789,10.0789474 C13.6315789,9.78947368 13.3947368,9.55263158 13.1052632,9.55263158 Z M5.19407895,2.44736842 L13.1052632,2.44736842 C13.3947368,2.44736842 13.6315789,2.21052632 13.6315789,1.92105263 C13.6315789,1.63157895 13.3947368,1.39473684 13.1052632,1.39473684 L5.19407895,1.39473684 C4.90460526,1.39473684 4.66776316,1.63157895 4.66776316,1.92105263 C4.66776316,2.21052632 4.90460526,2.44736842 5.19407895,2.44736842 Z"/>
  </g>
</svg>
