<svg xmlns="http://www.w3.org/2000/svg" width="18" height="22" viewBox="0 0 18 22">
  <path fill="#FFF" d="M9,13 C18,13 18,18.1340068 18,22 C18,22 0,22 0,22 C2.36723813e-16,18.1340068 0,13 9,13 Z M16,20 C16,16.1340068 12.8659932,15 9,15 C5.13400675,15 2,16.1340068 2,20 C2,20 16,20 16,20 Z M9,12 C5.6862915,12 3,9.3137085 3,6 C3,2.6862915 5.6862915,0 9,0 C12.3137085,0 15,2.6862915 15,6 C15,9.3137085 12.3137085,12 9,12 Z M9,10 C11.209139,10 13,8.209139 13,6 C13,3.790861 11.209139,2 9,2 C6.790861,2 5,3.790861 5,6 C5,8.209139 6.790861,10 9,10 Z"/>
</svg>
