<svg xmlns="http://www.w3.org/2000/svg" width="16" height="16" viewBox="0 0 16 16">
  <path fill="#FFF" d="M17.0002448,8.00016397 C17.0002448,4.68616397 14.3142448,2.00016397 11.0002448,2.00016397 C7.68624484,2.00016397 5.00024484,4.68616397 5.00024484,8.00016397 C5.00024484,10.978164 7.17224484,13.443164 10.0182448,13.913164 C10.0152448,13.943164 10.0002448,13.969164 10.0002448,14.000164 L10.0002448,20.000164 C10.0002448,20.550164 10.4502448,21.000164 11.0002448,21.000164 C11.5502448,21.000164 12.0002448,20.550164 12.0002448,20.000164 L12.0002448,14.000164 C12.0002448,13.969164 11.9852448,13.943164 11.9822448,13.913164 C14.8282448,13.443164 17.0002448,10.978164 17.0002448,8.00016397 Z M11.0002448,12.000164 C8.79124484,12.000164 7.00024484,10.209164 7.00024484,8.00016397 C7.00024484,5.79116397 8.79124484,4.00016397 11.0002448,4.00016397 C13.2092448,4.00016397 15.0002448,5.79116397 15.0002448,8.00016397 C15.0002448,10.209164 13.2092448,12.000164 11.0002448,12.000164 Z" transform="rotate(-45 6.379 12.414)"/>
</svg>
